<svg width="131.641357" height="29.190186" viewBox="0 0 131.641 29.1902" fill="none" xmlns="http://www.w3.org/2000/svg" xmlns:xlink="http://www.w3.org/1999/xlink">
	<desc>
			Created with Pixso.
	</desc>
	<defs>
		<linearGradient x1="6.689949" y1="7.409790" x2="131.998947" y2="19.011230" id="paint_linear_593_411_0" gradientUnits="userSpaceOnUse">
			<stop stop-color="#00A5F0"/>
			<stop offset="1.000000" stop-color="#00D7D7"/>
		</linearGradient>
	</defs>
	<path id="Union" d="M61.7885 8.87427C62.1027 8.55127 62.3495 8.16907 62.5145 7.74976C62.6794 7.33044 62.7594 6.88257 62.7495 6.43213C62.7397 5.98157 62.6404 5.5376 62.4572 5.12585C62.274 4.71423 62.0107 4.34314 61.6827 4.03418C59.6078 2.06726 57.0046 0.747681 54.1917 0.236816C51.3787 -0.27417 48.4778 0.0457764 45.8436 1.15735C43.2096 2.26892 40.9565 4.12402 39.36 6.49573C37.7635 8.86755 36.8927 11.6531 36.8542 14.5118C36.8927 17.3706 37.7635 20.1561 39.36 22.528C40.9565 24.8997 43.2096 26.7548 45.8436 27.8663C48.4778 28.9779 51.3787 29.2979 54.1917 28.7869C57.0046 28.276 59.6078 26.9563 61.6827 24.9895C62.0107 24.6805 62.274 24.3094 62.4572 23.8978C62.6404 23.4861 62.7397 23.0421 62.7495 22.5916C62.7594 22.1411 62.6794 21.6932 62.5145 21.2739C62.3495 20.8546 62.1027 20.4724 61.7885 20.1494C61.1494 19.494 60.2783 19.1158 59.3632 19.0964C58.448 19.077 57.5618 19.418 56.8955 20.0457C55.4175 21.4404 53.4543 22.2046 51.4224 22.1763C49.3904 22.1481 47.4493 21.3293 46.0107 19.894C45.303 19.1879 44.7413 18.3489 44.3582 17.4254C43.975 16.5018 43.7777 15.5117 43.7777 14.5118C43.7777 13.512 43.975 12.5219 44.3582 11.5983C44.7413 10.6748 45.303 9.83582 46.0107 9.12964C47.4493 7.69434 49.3904 6.87561 51.4224 6.84729C53.4543 6.81897 55.4175 7.58325 56.8955 8.97803C57.5618 9.60583 58.4481 9.94666 59.3634 9.92712C60.2787 9.90759 61.1497 9.52905 61.7885 8.87329L61.7885 8.87427ZM70.3387 4.2207C73.0906 1.50037 76.8092 -0.0175781 80.6787 0.00012207C84.5481 -0.0175781 88.2666 1.50037 91.0184 4.2207C93.7703 6.94116 95.3307 10.6421 95.3573 14.5115C95.3573 18.4045 93.8108 22.1381 91.058 24.8909C88.3052 27.6437 84.5717 29.1902 80.6787 29.1902C76.7856 29.1902 73.052 27.6437 70.2992 24.8909C67.5464 22.1381 66 18.4045 66 14.5115C66.0266 10.6421 67.5869 6.94116 70.3387 4.2207ZM115.033 0.00244141C110.655 -0.0157471 106.448 1.70264 103.336 4.78088C100.223 7.85913 98.4573 12.0461 98.4265 16.424C98.4233 18.5835 98.8514 20.7218 99.6858 22.7136C100.52 24.7054 101.744 26.5105 103.285 28.0231C103.938 28.6644 104.816 29.0239 105.732 29.0239C106.647 29.0239 107.525 28.6644 108.178 28.0231C108.499 27.707 108.754 27.3302 108.928 26.9146C109.103 26.4989 109.192 26.0527 109.192 25.6021C109.192 25.1515 109.103 24.7053 108.928 24.2897C108.754 23.874 108.499 23.4972 108.178 23.181C107.28 22.2977 106.567 21.2444 106.08 20.0825C105.593 18.9207 105.342 17.6735 105.342 16.4137C105.342 15.1539 105.593 13.9067 106.08 12.7449C106.567 11.583 107.28 10.5298 108.178 9.64636C110.004 7.85022 112.462 6.84363 115.023 6.84363C117.584 6.84363 120.043 7.85022 121.868 9.64636C122.766 10.5298 123.48 11.583 123.967 12.7449C124.454 13.9067 124.704 15.1539 124.704 16.4137C124.704 17.6735 124.454 18.9207 123.967 20.0825C123.48 21.2444 122.766 22.2977 121.868 23.181C121.547 23.4971 121.292 23.8738 121.118 24.2894C120.944 24.705 120.854 25.151 120.854 25.6016C120.854 26.0521 120.944 26.4982 121.118 26.9138C121.292 27.3293 121.547 27.7061 121.868 28.0221C122.521 28.6635 123.4 29.0229 124.315 29.0229C125.23 29.0229 126.108 28.6635 126.761 28.0221C128.306 26.5115 129.534 24.7074 130.372 22.7156C131.21 20.7239 131.642 18.5848 131.641 16.424C131.611 12.0458 129.845 7.85852 126.732 4.78015C123.618 1.7019 119.411 -0.0162354 115.033 0.00244141ZM4.90942 4.78052C8.02271 1.70227 12.2294 -0.0159912 16.6074 0.00244141C20.9856 -0.0159912 25.1923 1.70227 28.3054 4.78052C31.4186 7.85889 33.1841 12.046 33.215 16.424C33.215 18.5847 32.7833 20.7236 31.9453 22.7151C31.1073 24.7067 29.8798 26.5106 28.3347 28.0211C27.682 28.6625 26.8035 29.022 25.8883 29.022C24.9731 29.022 24.0946 28.6625 23.4419 28.0211C23.1206 27.7051 22.8656 27.3282 22.6914 26.9126C22.5173 26.4969 22.4276 26.0508 22.4276 25.6001C22.4276 25.1495 22.5173 24.7034 22.6914 24.2877C22.8656 23.8721 23.1206 23.4952 23.4419 23.1791C24.3401 22.2958 25.0536 21.2423 25.5405 20.0804C26.0276 18.9185 26.2783 17.6711 26.2783 16.4113C26.2783 15.1514 26.0276 13.9042 25.5405 12.7422C25.0536 11.5802 24.3401 10.5269 23.4419 9.64343C21.6161 7.84729 19.1575 6.84058 16.5962 6.84058C14.035 6.84058 11.5764 7.84729 9.75061 9.64343C8.85229 10.5269 8.13879 11.5802 7.65186 12.7422C7.16492 13.9042 6.91406 15.1514 6.91406 16.4113C6.91406 17.6711 7.16492 18.9185 7.65186 20.0804C8.13879 21.2423 8.85229 22.2958 9.75061 23.1791C10.0718 23.4952 10.3269 23.8721 10.501 24.2877C10.6752 24.7034 10.7648 25.1495 10.7648 25.6001C10.7648 26.0508 10.6752 26.4969 10.501 26.9126C10.3269 27.3282 10.0718 27.7051 9.75061 28.0211C9.09778 28.6625 8.21924 29.022 7.30408 29.022C6.38904 29.022 5.5105 28.6625 4.85767 28.0211C3.31677 26.5088 2.09338 24.7039 1.25928 22.7125C0.425049 20.7211 -0.00305176 18.5831 0 16.424C0.0307617 12.046 1.79626 7.85889 4.90942 4.78052ZM76.444 20.8417C77.693 21.6945 79.1664 22.1586 80.6787 22.1758C81.6909 22.1815 82.6943 21.9879 83.6318 21.6058C84.5692 21.2239 85.4222 20.6609 86.1421 19.9492C86.8619 19.2375 87.4346 18.391 87.8274 17.458C88.2201 16.525 88.4252 15.5238 88.4309 14.5115C88.431 12.9991 87.9838 11.5206 87.1454 10.2618C86.307 9.00317 85.115 8.02063 83.7195 7.43774C82.324 6.85498 80.7872 6.69812 79.3026 6.98669C77.8181 7.27539 76.4521 7.9967 75.3767 9.06006C74.3011 10.1233 73.5642 11.481 73.2587 12.962C72.953 14.4432 73.0924 15.9817 73.6592 17.3838C74.2261 18.7859 75.1949 19.989 76.444 20.8417ZM51.5502 17.9342C53.4612 17.9237 55.002 16.3834 54.9915 14.494C54.981 12.6046 53.4233 11.0815 51.5123 11.0922C49.6013 11.1027 48.0605 12.6429 48.071 14.5323C48.0815 16.4218 49.6392 17.9448 51.5502 17.9342Z" clip-rule="evenodd" fill="url(#paint_linear_593_411_0)" fill-opacity="1.000000" fill-rule="evenodd"/>
</svg>
